PathFileType   4   (X/Y/Z)
DataRate	CameraRate	NumFrames	NumMarkers	Units	OrigDataRate	OrigDataStartFrame	OrigNumFrames
120.0	120.0	4	37	mm	120.0	107	142
Frame#	Time	midhip	hip_r	hip_l	knee_r	knee_l	ankle_r	ankle_l	midasis	asis_r	asis_l	psis_r	psis_l	epicondLat_r	epicondLat_l	epicondMed_r	epicondMed_l	malleolusLat_r	malleolusLat_l	malleolusMedv_r	malleolusMedv_l	neck	subclavicle_r	subclavicle_l	sternalnotch	xyphoidprocess	thighwand_r	thighwand_l	upperleg1_r	upperleg1_l	upperleg2_r	upperleg2_l	shankwand_r	shankwand_l	lowerleg1_r	lowerleg1_l	toe_r	toe_l
 	 	X1	Y1	Z1	X2	Y2	Z2	X3	Y3	Z3	X4	Y4	Z4	X5	Y5	Z5	X6	Y6	Z6	X7	Y7	Z7	X8	Y8	Z8	X9	Y9	Z9	X10	Y10	Z10	X11	Y11	Z11	X12	Y12	Z12	X13	Y13	Z13	X14	Y14	Z14	X15	Y15	Z15	X16	Y16	Z16	X17	Y17	Z17	X18	Y18	Z18	X19	Y19	Z19	X20	Y20	Z20	X21	Y21	Z21	X22	Y22	Z22	X23	Y23	Z23	X24	Y24	Z24	X25	Y25	Z25	X26	Y26	Z26	X27	Y27	Z27	X28	Y28	Z28	X29	Y29	Z29	X30	Y30	Z30	X31	Y31	Z31	X32	Y32	Z32	X33	Y33	Z33	X34	Y34	Z34	X35	Y35	Z35	X36	Y36	Z36	X37	Y37	Z37

	107	1.06667	1310.657	892.667	-230.757	1301.683	868.504	-163.463	1314.425	877.763	-313.065	1447.361	481.637	-133.538	1304.852	463.438	-283.044	1248.677	140.139	-130.314	1278.950	69.652	-236.599	1392.300	961.221	-225.637	1382.289	953.947	-108.109	1402.310	968.495	-343.165	1202.290	994.796	-199.249	1213.683	1000.392	-284.504	1453.872	488.553	-75.814	1315.590	459.072	-339.874	1457.100	463.322	-182.806	1276.174	454.514	-237.434	1230.789	150.869	-96.183	1263.958	66.409	-272.456	1267.792	145.455	-155.718	1284.868	85.935	-212.140	1220.668	1429.542	-222.242	1340.519	1344.951	-165.353	1352.244	1349.174	-269.709	1329.818	1355.857	-216.580	1402.036	1187.863	-226.614	1467.674	589.482	-0.334	1453.315	537.130	-275.100	1462.846	654.354	-67.631	1394.249	595.547	-325.633	1492.831	571.987	-86.352	1364.528	511.871	-322.583	1298.057	268.777	-9.261	1303.111	192.897	-371.167	1286.899	236.474	-82.655	1279.295	163.828	-299.182	1330.834	59.271	-94.612	1399.761	39.225	-261.517
	108	1.07500	1315.060	891.863	-231.144	1306.782	868.599	-163.755	1319.169	877.418	-313.414	1458.074	483.506	-134.283	1307.616	463.272	-282.915	1269.991	135.348	-130.653	1279.398	69.675	-236.389	1397.270	961.114	-226.416	1387.538	954.186	-108.849	1407.001	968.041	-343.983	1207.466	994.733	-199.422	1218.607	1000.146	-284.694	1464.187	490.329	-76.505	1318.135	458.791	-339.776	1467.378	466.488	-185.023	1279.953	453.936	-238.143	1251.920	145.468	-96.432	1264.313	66.522	-272.214	1289.132	141.277	-156.069	1285.124	85.873	-211.782	1227.000	1429.459	-223.045	1346.582	1344.406	-167.394	1358.264	1348.926	-270.042	1335.738	1355.675	-217.090	1407.638	1187.346	-228.346	1476.043	591.096	-0.910	1456.627	536.162	-275.544	1470.137	656.310	-67.666	1397.938	594.669	-326.073	1501.485	574.569	-87.395	1368.571	511.793	-323.125	1315.779	265.304	-9.622	1304.034	192.645	-371.029	1305.687	232.382	-83.226	1280.120	163.914	-299.007	1355.417	57.849	-95.043	1399.752	39.229	-261.614
	109	1.08333	1320.021	891.659	-231.350	1311.925	868.642	-164.053	1323.937	877.040	-313.767	1468.547	485.242	-135.013	1310.394	463.107	-282.791	1291.546	130.557	-131.040	1279.817	69.722	-236.223	1402.278	960.957	-227.199	1392.841	954.360	-109.584	1411.715	967.555	-344.814	1212.649	994.660	-199.565	1223.491	999.854	-284.825	1474.214	491.937	-77.175	1320.703	458.512	-339.682	1477.157	468.896	-186.062	1283.992	453.608	-237.452	1273.318	140.038	-96.720	1264.628	66.665	-272.013	1310.583	137.082	-156.476	1285.423	85.819	-211.442	1233.562	1429.350	-223.277	1353.129	1344.286	-168.162	1363.750	1348.733	-270.542	1341.689	1355.416	-217.566	1413.255	1187.082	-229.476	1484.092	592.566	-1.423	1459.956	535.217	-275.974	1477.579	658.222	-67.921	1401.193	593.871	-326.431	1509.823	576.947	-87.879	1372.233	511.662	-323.075	1333.649	261.702	-10.036	1304.898	192.406	-370.905	1323.742	228.737	-83.641	1280.371	164.027	-298.820	1380.075	56.586	-95.525	1399.725	39.242	-261.712
	110	1.09167	1325.320	891.785	-231.501	1317.132	868.641	-164.326	1328.735	876.627	-314.095	1478.720	486.818	-135.711	1313.205	462.945	-282.665	1313.328	125.820	-131.466	1280.186	69.777	-236.098	1407.335	960.760	-227.973	1398.219	954.486	-110.296	1416.452	967.035	-345.650	1217.845	994.575	-199.671	1228.363	999.519	-284.905	1483.923	493.359	-77.811	1323.318	458.241	-339.582	1485.636	470.096	-186.011	1287.085	453.689	-236.760	1294.963	134.639	-97.042	1264.893	66.827	-271.853	1332.229	133.021	-157.015	1285.716	85.816	-211.298	1239.653	1429.139	-223.309	1359.356	1344.059	-168.315	1369.307	1348.462	-270.920	1347.679	1355.139	-218.011	1418.966	1186.791	-230.043	1491.858	593.881	-1.871	1463.292	534.298	-276.364	1484.587	659.778	-68.314	1404.491	593.614	-326.708	1517.511	578.563	-88.112	1374.932	510.863	-323.009	1351.611	258.028	-10.482	1305.734	192.175	-370.792	1341.877	225.300	-84.140	1280.490	163.964	-298.607	1404.770	55.494	-96.073	1399.671	39.268	-261.802
